<?xml version="1.0" encoding="UTF-8"?>
<svg id="Layer_2" data-name="Layer 2" xmlns="http://www.w3.org/2000/svg" version="1.1" viewBox="0 0 85 97.6">
  <defs>
    <style>
      .cls-1 {
        fill: #fff;
        stroke-width: 0px;
      }
    </style>
  </defs>
  <g id="Layer_5" data-name="Layer 5">
    <path class="cls-1" d="M28.9,55c.6,0,1.3.2,1.9.2,5.9,0,11.1-4.3,12-10.3,1-6.6-3.5-12.9-10.1-13.9-3.2-.5-6.4.3-9.1,2.2-2.6,1.9-4.4,4.7-4.9,7.9-1,6.6,3.5,12.9,10.1,13.9Z"/>
    <path class="cls-1" d="M84.6,33.5c0,0,0-.1-.1-.2L49.3.2c-.2-.2-.6-.2-.9,0-.2.2-.2.6,0,.9l31.7,35.3s0,0,0,0c0,0,1.1.8,2.4.8s.8,0,1.2-.3c.5-.2.9-.6,1-1.1.4-1.1-.2-2.3-.3-2.4h0Z"/>
    <path class="cls-1" d="M71.4,34.8c0-.2-.3-.4-.6-.4h0c-.2,0-.5.2-.6.4-1.4,3.4-4.9,10.3-12.2,18.4-4,4.4-13.5,14.8-34.2,12.4C3.9,63.3,3.2,38.7,3.2,38.5c0-.3-.2-.6-.5-.6-.3,0-.6.2-.7.4-.1.5-3.8,13.4-.9,24.1,1.1,4.2,4.6,10,10.9,14.1l-2.8,2.4c-.2.2-.3.5-.2.7.1.2,2.9,6,19.4,12.3,11.5,4.4,18.7,5.6,23,5.6s5.5-1,5.7-1.1c.2-.1.3-.4.3-.6,0-.2-.2-.4-.5-.5,0,0-.2,0-.5-.2-2.7-.8-12.2-4.1-21.2-12.8-.6-.6-1.2-1.2-1.8-1.8,12.8-2.8,24.4-14.2,31.1-24.1,5.3-7.8,7.2-14.9,7.8-19.5,0-.1,0-.2,0-.3l-.8-1.9h0Z"/>
  </g>
</svg>